HIERARCHY
ROOT Hips
{
	OFFSET -44.9452782 85.2595062 67.2076645
	CHANNELS 6 Xposition Yposition Zposition Zrotation Yrotation Xrotation 
	JOINT Spine
	{
		OFFSET 2.12644136e-05 8.81424713 -2.08003163
		CHANNELS 6 Xposition Yposition Zposition Zrotation Yrotation Xrotation 
		JOINT Spine1
		{
			OFFSET 2.74971058e-06 8.84413624 -4.30416685e-06
			CHANNELS 6 Xposition Yposition Zposition Zrotation Yrotation Xrotation 
			JOINT Spine2
			{
				OFFSET -2.36320398e-06 11.6822739 5.38655968e-06
				CHANNELS 6 Xposition Yposition Zposition Zrotation Yrotation Xrotation 
				JOINT Spine3
				{
					OFFSET 3.97585064e-06 11.7466974 -5.45964076e-06
					CHANNELS 6 Xposition Yposition Zposition Zrotation Yrotation Xrotation 
					JOINT Neck
					{
						OFFSET 7.16614477e-06 17.6582775 -8.46537659e-05
						CHANNELS 6 Xposition Yposition Zposition Zrotation Yrotation Xrotation 
						JOINT Neck1
						{
							OFFSET 9.45311285e-07 5.10150814 3.58604257e-06
							CHANNELS 6 Xposition Yposition Zposition Zrotation Yrotation Xrotation 
							JOINT Head
							{
								OFFSET -1.30582639e-05 5.1015234 1.12755279e-05
								CHANNELS 6 Xposition Yposition Zposition Zrotation Yrotation Xrotation 
								JOINT HeadEnd
								{
									OFFSET -2.22044605e-16 11.6550846 4.79616347e-14
									CHANNELS 6 Xposition Yposition Zposition Zrotation Yrotation Xrotation 
									End Site
									{
										OFFSET 0 0 0
									}
								}
							}
						}
					}
					JOINT RightShoulder
					{
						OFFSET -2.62539244 11.1752243 -3.59289106e-06
						CHANNELS 6 Xposition Yposition Zposition Zrotation Yrotation Xrotation 
						JOINT RightArm
						{
							OFFSET 7.73556622e-06 10.4347134 5.86041824e-06
							CHANNELS 6 Xposition Yposition Zposition Zrotation Yrotation Xrotation 
							JOINT RightForeArm
							{
								OFFSET 0.0957347155 25.8714371 -0.549728453
								CHANNELS 6 Xposition Yposition Zposition Zrotation Yrotation Xrotation 
								JOINT RightHand
								{
									OFFSET 0.298971564 24.8929195 -0.0338128209
									CHANNELS 6 Xposition Yposition Zposition Zrotation Yrotation Xrotation 
									JOINT RightHandThumb1
									{
										OFFSET -2.86731339 3.9595654 2.94429994
										CHANNELS 6 Xposition Yposition Zposition Zrotation Yrotation Xrotation 
										JOINT RightHandThumb2
										{
											OFFSET -2.50052563e-06 3.35039234 -9.45627109e-07
											CHANNELS 6 Xposition Yposition Zposition Zrotation Yrotation Xrotation 
											JOINT RightHandThumb3
											{
												OFFSET -4.63740999e-07 3.75652647 9.11989897e-07
												CHANNELS 6 Xposition Yposition Zposition Zrotation Yrotation Xrotation 
												JOINT RightHandThumb4
												{
													OFFSET -7.48510865e-06 3.14734459 3.84860578e-07
													CHANNELS 6 Xposition Yposition Zposition Zrotation Yrotation Xrotation 
													End Site
													{
														OFFSET 0 0 0
													}
												}
											}
										}
									}
									JOINT RightHandIndex1
									{
										OFFSET -0.0867650732 10.030901 2.34527922
										CHANNELS 6 Xposition Yposition Zposition Zrotation Yrotation Xrotation 
										JOINT RightHandIndex2
										{
											OFFSET -2.91101037e-06 4.06108713 6.29663827e-06
											CHANNELS 6 Xposition Yposition Zposition Zrotation Yrotation Xrotation 
											JOINT RightHandIndex3
											{
												OFFSET -1.87533055e-06 3.24887371 -4.62143272e-06
												CHANNELS 6 Xposition Yposition Zposition Zrotation Yrotation Xrotation 
												JOINT RightHandIndex4
												{
													OFFSET 4.43543567e-07 2.63970828 1.36884614e-06
													CHANNELS 6 Xposition Yposition Zposition Zrotation Yrotation Xrotation 
													End Site
													{
														OFFSET 0 0 0
													}
												}
											}
										}
									}
									JOINT RightHandMiddle1
									{
										OFFSET 0.104106441 9.50296402 0.00677596871
										CHANNELS 6 Xposition Yposition Zposition Zrotation Yrotation Xrotation 
										JOINT RightHandMiddle2
										{
											OFFSET -2.94235201e-06 4.56872749 4.77366302e-06
											CHANNELS 6 Xposition Yposition Zposition Zrotation Yrotation Xrotation 
											JOINT RightHandMiddle3
											{
												OFFSET -3.5241851e-06 3.65498352 -1.04429058e-06
												CHANNELS 6 Xposition Yposition Zposition Zrotation Yrotation Xrotation 
												JOINT RightHandMiddle4
												{
													OFFSET -2.54552379e-06 2.74123669 5.87986824e-06
													CHANNELS 6 Xposition Yposition Zposition Zrotation Yrotation Xrotation 
													End Site
													{
														OFFSET 0 0 0
													}
												}
											}
										}
									}
									JOINT RightHandRing1
									{
										OFFSET 0.0867452025 8.92171574 -2.26745033
										CHANNELS 6 Xposition Yposition Zposition Zrotation Yrotation Xrotation 
										JOINT RightHandRing2
										{
											OFFSET -1.11352085e-06 4.06109333 2.09545941e-06
											CHANNELS 6 Xposition Yposition Zposition Zrotation Yrotation Xrotation 
											JOINT RightHandRing3
											{
												OFFSET -3.8552621e-06 3.65497398 1.08469931e-05
												CHANNELS 6 Xposition Yposition Zposition Zrotation Yrotation Xrotation 
												JOINT RightHandRing4
												{
													OFFSET -6.57671188e-07 2.74124312 -3.36941185e-06
													CHANNELS 6 Xposition Yposition Zposition Zrotation Yrotation Xrotation 
													End Site
													{
														OFFSET 0 0 0
													}
												}
											}
										}
									}
									JOINT RightHandPinky1
									{
										OFFSET -0.173498377 7.97698975 -4.46720171
										CHANNELS 6 Xposition Yposition Zposition Zrotation Yrotation Xrotation 
										JOINT RightHandPinky2
										{
											OFFSET -4.02996329e-06 3.35041285 -1.07891838e-05
											CHANNELS 6 Xposition Yposition Zposition Zrotation Yrotation Xrotation 
											JOINT RightHandPinky3
											{
												OFFSET -2.29595162e-06 2.8427608 -7.71685924e-08
												CHANNELS 6 Xposition Yposition Zposition Zrotation Yrotation Xrotation 
												JOINT RightHandPinky4
												{
													OFFSET -1.41437449e-05 2.6397078 4.21668847e-06
													CHANNELS 6 Xposition Yposition Zposition Zrotation Yrotation Xrotation 
													End Site
													{
														OFFSET 0 0 0
													}
												}
											}
										}
									}
									JOINT RightForeArmEnd
									{
										OFFSET -3.1388045e-14 4.92508253e-15 5.25500979e-16
										CHANNELS 6 Xposition Yposition Zposition Zrotation Yrotation Xrotation 
										End Site
										{
											OFFSET 0 0 0
										}
									}
								}
								JOINT RightArmEnd
								{
									OFFSET -5.33232905e-14 -3.82917671e-15 -4.44169779e-15
									CHANNELS 6 Xposition Yposition Zposition Zrotation Yrotation Xrotation 
									End Site
									{
										OFFSET 0 0 0
									}
								}
							}
						}
					}
					JOINT LeftShoulder
					{
						OFFSET 2.62538815 11.1752148 -4.95919994e-06
						CHANNELS 6 Xposition Yposition Zposition Zrotation Yrotation Xrotation 
						JOINT LeftArm
						{
							OFFSET 9.49955574e-06 10.8136377 3.17984562e-06
							CHANNELS 6 Xposition Yposition Zposition Zrotation Yrotation Xrotation 
							JOINT LeftForeArm
							{
								OFFSET 0.495141655 25.5930443 -0.449480385
								CHANNELS 6 Xposition Yposition Zposition Zrotation Yrotation Xrotation 
								JOINT LeftHand
								{
									OFFSET 1.1740694 25.9241447 -0.520481229
									CHANNELS 6 Xposition Yposition Zposition Zrotation Yrotation Xrotation 
									JOINT LeftHandThumb1
									{
										OFFSET 2.86732507 3.95956707 2.94428682
										CHANNELS 6 Xposition Yposition Zposition Zrotation Yrotation Xrotation 
										JOINT LeftHandThumb2
										{
											OFFSET -1.3477008e-05 3.35040236 -8.54255541e-06
											CHANNELS 6 Xposition Yposition Zposition Zrotation Yrotation Xrotation 
											JOINT LeftHandThumb3
											{
												OFFSET 2.07890025e-06 3.75651217 1.10238295e-06
												CHANNELS 6 Xposition Yposition Zposition Zrotation Yrotation Xrotation 
												JOINT LeftHandThumb4
												{
													OFFSET -2.0749098e-08 3.09999681 1.3783066e-06
													CHANNELS 6 Xposition Yposition Zposition Zrotation Yrotation Xrotation 
													End Site
													{
														OFFSET 0 0 0
													}
												}
											}
										}
									}
									JOINT LeftHandIndex1
									{
										OFFSET 0.0867493525 10.0309238 2.34527373
										CHANNELS 6 Xposition Yposition Zposition Zrotation Yrotation Xrotation 
										JOINT LeftHandIndex2
										{
											OFFSET 2.41077372e-07 4.06110334 -2.97097722e-06
											CHANNELS 6 Xposition Yposition Zposition Zrotation Yrotation Xrotation 
											JOINT LeftHandIndex3
											{
												OFFSET 1.79000108e-05 3.24887109 -4.07209564e-06
												CHANNELS 6 Xposition Yposition Zposition Zrotation Yrotation Xrotation 
												JOINT LeftHandIndex4
												{
													OFFSET -3.82904095e-07 2.6397078 -1.69663308e-07
													CHANNELS 6 Xposition Yposition Zposition Zrotation Yrotation Xrotation 
													End Site
													{
														OFFSET 0 0 0
													}
												}
											}
										}
									}
									JOINT LeftHandMiddle1
									{
										OFFSET -0.104109436 9.50298882 0.00676787179
										CHANNELS 6 Xposition Yposition Zposition Zrotation Yrotation Xrotation 
										JOINT LeftHandMiddle2
										{
											OFFSET 9.1178805e-07 4.56873703 -6.14661122e-06
											CHANNELS 6 Xposition Yposition Zposition Zrotation Yrotation Xrotation 
											JOINT LeftHandMiddle3
											{
												OFFSET 1.81557596e-06 3.65497112 -4.74438776e-06
												CHANNELS 6 Xposition Yposition Zposition Zrotation Yrotation Xrotation 
												JOINT LeftHandMiddle4
												{
													OFFSET 2.18910918e-06 2.74124336 3.10492078e-06
													CHANNELS 6 Xposition Yposition Zposition Zrotation Yrotation Xrotation 
													End Site
													{
														OFFSET 0 0 0
													}
												}
											}
										}
									}
									JOINT LeftHandRing1
									{
										OFFSET -0.0867591947 8.92171192 -2.2674408
										CHANNELS 6 Xposition Yposition Zposition Zrotation Yrotation Xrotation 
										JOINT LeftHandRing2
										{
											OFFSET 2.08972028e-06 4.06110573 6.48289699e-07
											CHANNELS 6 Xposition Yposition Zposition Zrotation Yrotation Xrotation 
											JOINT LeftHandRing3
											{
												OFFSET 3.74229057e-06 3.654989 -6.18886758e-07
												CHANNELS 6 Xposition Yposition Zposition Zrotation Yrotation Xrotation 
												JOINT LeftHandRing4
												{
													OFFSET 3.01978662e-06 2.74123693 8.1998578e-06
													CHANNELS 6 Xposition Yposition Zposition Zrotation Yrotation Xrotation 
													End Site
													{
														OFFSET 0 0 0
													}
												}
											}
										}
									}
									JOINT LeftHandPinky1
									{
										OFFSET 0.173493519 7.97702837 -4.46721458
										CHANNELS 6 Xposition Yposition Zposition Zrotation Yrotation Xrotation 
										JOINT LeftHandPinky2
										{
											OFFSET 1.71012871e-05 3.35040283 1.12841565e-06
											CHANNELS 6 Xposition Yposition Zposition Zrotation Yrotation Xrotation 
											JOINT LeftHandPinky3
											{
												OFFSET -1.13634251e-05 2.84276891 3.9751194e-06
												CHANNELS 6 Xposition Yposition Zposition Zrotation Yrotation Xrotation 
												JOINT LeftHandPinky4
												{
													OFFSET 1.02627912e-07 2.63970709 -1.35094103e-06
													CHANNELS 6 Xposition Yposition Zposition Zrotation Yrotation Xrotation 
													End Site
													{
														OFFSET 0 0 0
													}
												}
											}
										}
									}
									JOINT LeftForeArmEnd
									{
										OFFSET 0 0 0
										CHANNELS 6 Xposition Yposition Zposition Zrotation Yrotation Xrotation 
										End Site
										{
											OFFSET 0 0 0
										}
									}
								}
								JOINT LeftArmEnd
								{
									OFFSET 3.17561423e-14 4.50464437e-15 -5.61111971e-15
									CHANNELS 6 Xposition Yposition Zposition Zrotation Yrotation Xrotation 
									End Site
									{
										OFFSET 0 0 0
									}
								}
							}
						}
					}
				}
			}
		}
	}
	JOINT RightUpLeg
	{
		OFFSET -11.2899361 -7.77704918e-06 2.7403887e-06
		CHANNELS 6 Xposition Yposition Zposition Zrotation Yrotation Xrotation 
		JOINT RightLeg
		{
			OFFSET 0.000145498008 -38.2003098 0.000342112646
			CHANNELS 6 Xposition Yposition Zposition Zrotation Yrotation Xrotation 
			JOINT RightFoot
			{
				OFFSET -4.26941642e-06 -39.900856 1.54462232e-05
				CHANNELS 6 Xposition Yposition Zposition Zrotation Yrotation Xrotation 
				JOINT RightToeBase
				{
					OFFSET 3.79285826e-06 -2.6867815e-06 15.2616644
					CHANNELS 6 Xposition Yposition Zposition Zrotation Yrotation Xrotation 
					JOINT RightToeBaseEnd
					{
						OFFSET 1.19904087e-14 4.30211422e-15 7.37070894
						CHANNELS 6 Xposition Yposition Zposition Zrotation Yrotation Xrotation 
						End Site
						{
							OFFSET 0 0 0
						}
					}
				}
				JOINT RightLegEnd
				{
					OFFSET 3.47757694e-16 -3.26728773e-15 1.35117356e-15
					CHANNELS 6 Xposition Yposition Zposition Zrotation Yrotation Xrotation 
					End Site
					{
						OFFSET 0 0 0
					}
				}
			}
			JOINT RightUpLegEnd
			{
				OFFSET 0 0 0
				CHANNELS 6 Xposition Yposition Zposition Zrotation Yrotation Xrotation 
				End Site
				{
					OFFSET 0 0 0
				}
			}
		}
	}
	JOINT LeftUpLeg
	{
		OFFSET 11.3156643 8.20289279e-06 2.81653229e-06
		CHANNELS 6 Xposition Yposition Zposition Zrotation Yrotation Xrotation 
		JOINT LeftLeg
		{
			OFFSET 0.00036003787 -38.20047 0.00409155339
			CHANNELS 6 Xposition Yposition Zposition Zrotation Yrotation Xrotation 
			JOINT LeftFoot
			{
				OFFSET -7.18185856e-06 -39.9009285 7.9073161e-06
				CHANNELS 6 Xposition Yposition Zposition Zrotation Yrotation Xrotation 
				JOINT LeftToeBase
				{
					OFFSET 3.43780198e-06 -7.24822849e-06 15.2616539
					CHANNELS 6 Xposition Yposition Zposition Zrotation Yrotation Xrotation 
					JOINT LeftToeBaseEnd
					{
						OFFSET -2.48689958e-14 1.05471187e-14 7.53999615
						CHANNELS 6 Xposition Yposition Zposition Zrotation Yrotation Xrotation 
						End Site
						{
							OFFSET 0 0 0
						}
					}
				}
				JOINT LeftLegEnd
				{
					OFFSET -2.61715904e-16 -1.54437558e-15 8.37766357e-16
					CHANNELS 6 Xposition Yposition Zposition Zrotation Yrotation Xrotation 
					End Site
					{
						OFFSET 0 0 0
					}
				}
			}
			JOINT LeftUpLegEnd
			{
				OFFSET 0 0 0
				CHANNELS 6 Xposition Yposition Zposition Zrotation Yrotation Xrotation 
				End Site
				{
					OFFSET 0 0 0
				}
			}
		}
	}
}
MOTION
Frames: 2
Frame Time: 0.016667
-33.28012 84.57124 -49.98775 179.259 -0.1954349 171.0685 2.126441e-05 8.814247 -2.080032 -0.6936492 1.951059 11.49898 2.749711e-06 8.844136 -4.304167e-06 -0.4556247 0.8665513 5.201938 -2.363204e-06 11.68227 5.38656e-06 -0.4590829 0.8607447 -0.03703182 3.975851e-06 11.7467 -5.459641e-06 -0.3056588 0.6658671 -0.06340225 7.166145e-06 17.65832 -8.465377e-05 -0.1431399 -0.5186012 2.278767 9.453113e-07 5.101508 3.586043e-06 -0.144146 -0.5183166 1.165617 -1.305826e-05 5.101523 1.127553e-05 -1.688889 -3.074512 23.43723 6.106227e-15 11.65508 5.240253e-14 -1.785335e-14 -9.939233e-15 1.272222e-14 -2.625392 11.17522 -3.592891e-06 0 0 0 7.735566e-06 10.43471 5.860418e-06 0 0 0 0.06990588 25.86843 -0.5370735 0 0 0 0.2989716 24.89292 -0.03381282 0 0 0 -2.867313 3.959565 2.9443 0 0 0 -2.500526e-06 3.350392 -9.456271e-07 0 0 0 -4.63741e-07 3.756526 9.119899e-07 0 0 0 -7.485109e-06 3.147345 3.848606e-07 0 0 0 -0.08676507 10.0309 2.345279 0 0 0 -2.91101e-06 4.061087 6.296638e-06 0 0 0 -1.875331e-06 3.248874 -4.621433e-06 0 0 0 4.435436e-07 2.639708 1.368846e-06 0 0 0 0.1041064 9.502964 0.006775969 0 0 0 -2.942352e-06 4.568727 4.773663e-06 0 0 0 -3.524185e-06 3.654984 -1.044291e-06 0 0 0 -2.545524e-06 2.741237 5.879868e-06 0 0 0 0.0867452 8.921716 -2.26745 0 0 0 -1.113521e-06 4.061093 2.095459e-06 0 0 0 -3.855262e-06 3.654974 1.084699e-05 0 0 0 -6.576712e-07 2.741243 -3.369412e-06 0 0 0 -0.1734984 7.97699 -4.467202 0 0 0 -4.029963e-06 3.350413 -1.078918e-05 0 0 0 -2.295952e-06 2.842761 -7.716859e-08 0 0 0 -1.414374e-05 2.639708 4.216688e-06 0 0 0 -3.425011e-14 2.127702e-14 1.5579e-15 0 0 0 -5.38841e-14 -3.369067e-14 -6.40682e-16 0 0 0 2.625388 11.17521 -4.9592e-06 -100.2945 20.20476 2.734049 9.499556e-06 10.81364 3.179846e-06 -68.11868 29.29077 17.11737 0.4951417 25.59304 -0.4494804 57.38762 -11.22918 42.72628 1.174069 25.92414 -0.5204812 18.81697 -19.51858 -6.921256 2.867325 3.959567 2.944287 6.06178 5.516673 17.4247 -1.347701e-05 3.350402 -8.542555e-06 -7.583434 -6.093287 -16.90981 2.0789e-06 3.756512 1.102383e-06 0.0001335989 -8.186963e-07 0.001102742 -2.074909e-08 3.099997 1.378307e-06 -4.978381e-06 -3.291459e-06 -3.199143e-06 0.08674935 10.03092 2.345274 -3.58128e-07 -3.910385e-06 1.559173e-06 2.410774e-07 4.061103 -2.970977e-06 -1.324933e-06 1.980521e-06 2.853418e-06 1.790001e-05 3.248871 -4.072096e-06 4.689949e-06 -6.778856e-06 0.000342425 -3.829041e-07 2.639708 -1.696633e-07 6.119246e-06 -4.601228e-06 3.170122e-06 -0.1041094 9.502989 0.006767872 -3.58128e-07 -3.910385e-06 1.559173e-06 9.117881e-07 4.568737 -6.146611e-06 -1.318266e-05 -4.625668e-06 7.350392e-06 1.815576e-06 3.654971 -4.744388e-06 -4.301946e-06 -2.915932e-06 -0.0002340901 2.189109e-06 2.741243 3.104921e-06 3.236308e-06 -5.618715e-06 1.619332e-06 -0.08675919 8.921712 -2.267441 -3.58128e-07 -3.910385e-06 1.559173e-06 2.08972e-06 4.061106 6.482897e-07 -1.840189e-06 -2.235789e-06 4.088676e-06 3.742291e-06 3.654989 -6.188868e-07 4.384684e-06 -5.42229e-06 -0.0004519943 3.019787e-06 2.741237 8.199858e-06 -5.907843e-06 -1.86239e-06 -7.668216e-07 0.1734935 7.977028 -4.467215 -3.58128e-07 -3.910385e-06 1.559173e-06 1.710129e-05 3.350403 1.128416e-06 -0.0005601859 -8.746399e-06 6.629607e-06 -1.136343e-05 2.842769 3.975119e-06 -4.827385e-06 -4.0199e-06 7.631443e-05 1.026279e-07 2.639707 -1.350941e-06 1.324939e-06 -1.980534e-06 -2.853409e-06 0 0 0 1.749305e-14 9.541664e-15 2.544444e-14 4.501369e-14 1.567134e-14 -3.103259e-16 1.590277e-14 2.544444e-14 1.272222e-14 -11.28994 -7.777049e-06 2.740389e-06 -5.799479 -12.2354 3.928674 1.245513e-05 -38.20029 -0.000194745 -5.542792 2.75548 57.40244 -4.269416e-06 -39.90086 1.544622e-05 -2.858615 -5.485764 32.3857 3.792858e-06 -2.686781e-06 15.26166 0.1797786 -0.144323 -19.11802 1.509903e-14 9.769963e-15 7.370709 -2.544444e-14 7.553817e-15 3.180555e-14 -7.01736e-16 -3.477775e-15 -1.855306e-16 -3.339582e-14 -2.226388e-14 1.908333e-14 0 0 0 -2.385416e-15 -8.348956e-15 -1.272222e-14 11.31566 8.202893e-06 2.816532e-06 -3.02282 10.72763 -1.116318 0.0003758137 -38.2005 0.004062301 0.5732503 -1.131283 9.225982 -7.181859e-06 -39.90093 7.907316e-06 9.398077 3.1505 20.11931 3.437802e-06 -7.248228e-06 15.26165 -0.6771098 0.4881717 -20.50239 -2.753353e-14 1.06859e-14 7.539996 -1.126239e-14 1.359811e-14 -1.336462e-30 0 0 0 -1.192708e-14 -2.484808e-15 2.586273e-31 0 0 0 -8.181231e-15 3.665092e-16 -1.272222e-14
-33.50509 84.71635 -51.2231 179.4862 -0.2261381 170.9696 2.126441e-05 8.814247 -2.080032 -0.6318 1.852846 11.51404 2.749711e-06 8.844136 -4.304167e-06 -0.3823425 0.8198663 5.23099 -2.363204e-06 11.68227 5.38656e-06 -0.3855579 0.8159492 -0.008263933 3.975851e-06 11.7467 -5.459641e-06 -0.2488764 0.6297139 -0.0398418 7.166145e-06 17.65828 -8.465377e-05 -0.1545841 -0.5069078 2.309958 9.453113e-07 5.101508 3.586043e-06 -0.1555638 -0.5066015 1.19683 -1.305826e-05 5.101523 1.127553e-05 -1.748161 -2.980006 23.64183 1.132427e-14 11.65508 6.483702e-14 -1.769184e-14 -9.939233e-15 1.272222e-14 -2.625392 11.17522 -3.592891e-06 0 0 0 7.735566e-06 10.43471 5.860418e-06 0 0 0 0.06989858 25.86843 -0.5370791 0 0 0 0.2989716 24.89292 -0.03381282 0 0 0 -2.867313 3.959565 2.9443 0 0 0 -2.500526e-06 3.350392 -9.456271e-07 0 0 0 -4.63741e-07 3.756526 9.119899e-07 0 0 0 -7.485109e-06 3.147345 3.848606e-07 0 0 0 -0.08676507 10.0309 2.345279 0 0 0 -2.91101e-06 4.061087 6.296638e-06 0 0 0 -1.875331e-06 3.248874 -4.621433e-06 0 0 0 4.435436e-07 2.639708 1.368846e-06 0 0 0 0.1041064 9.502964 0.006775969 0 0 0 -2.942352e-06 4.568727 4.773663e-06 0 0 0 -3.524185e-06 3.654984 -1.044291e-06 0 0 0 -2.545524e-06 2.741237 5.879868e-06 0 0 0 0.0867452 8.921716 -2.26745 0 0 0 -1.113521e-06 4.061093 2.095459e-06 0 0 0 -3.855262e-06 3.654974 1.084699e-05 0 0 0 -6.576712e-07 2.741243 -3.369412e-06 0 0 0 -0.1734984 7.97699 -4.467202 0 0 0 -4.029963e-06 3.350413 -1.078918e-05 0 0 0 -2.295952e-06 2.842761 -7.716859e-08 0 0 0 -1.414374e-05 2.639708 4.216688e-06 0 0 0 -3.40086e-14 2.166365e-14 1.520119e-15 0 0 0 -5.41019e-14 -3.332812e-14 -1.090474e-15 0 0 0 2.625388 11.17521 -4.9592e-06 -100.1617 20.29775 2.707376 9.499556e-06 10.81364 3.179846e-06 -68.26987 29.32796 17.16936 0.4951417 25.59304 -0.4494804 57.76106 -11.80775 43.00338 1.174069 25.92414 -0.5204812 18.93182 -19.60933 -7.282581 2.867325 3.959567 2.944287 6.06178 5.516673 17.4247 -1.347701e-05 3.350402 -8.542555e-06 -7.583434 -6.093287 -16.90981 2.0789e-06 3.756512 1.102383e-06 0.0001335989 -8.186963e-07 0.001102742 -2.074909e-08 3.099997 1.378307e-06 -4.978381e-06 -3.291459e-06 -3.199143e-06 0.08674935 10.03092 2.345274 -3.58128e-07 -3.910385e-06 1.559173e-06 2.410774e-07 4.061103 -2.970977e-06 -1.324933e-06 1.980521e-06 2.853418e-06 1.790001e-05 3.248871 -4.072096e-06 4.689949e-06 -6.778856e-06 0.000342425 -3.829041e-07 2.639708 -1.696633e-07 6.119246e-06 -4.601228e-06 3.170122e-06 -0.1041094 9.502989 0.006767872 -3.58128e-07 -3.910385e-06 1.559173e-06 9.117881e-07 4.568737 -6.146611e-06 -1.318266e-05 -4.625668e-06 7.350392e-06 1.815576e-06 3.654971 -4.744388e-06 -4.301946e-06 -2.915932e-06 -0.0002340901 2.189109e-06 2.741243 3.104921e-06 3.236308e-06 -5.618715e-06 1.619332e-06 -0.08675919 8.921712 -2.267441 -3.58128e-07 -3.910385e-06 1.559173e-06 2.08972e-06 4.061106 6.482897e-07 -1.840189e-06 -2.235789e-06 4.088676e-06 3.742291e-06 3.654989 -6.188868e-07 4.384684e-06 -5.42229e-06 -0.0004519943 3.019787e-06 2.741237 8.199858e-06 -5.907843e-06 -1.86239e-06 -7.668216e-07 0.1734935 7.977028 -4.467215 -3.58128e-07 -3.910385e-06 1.559173e-06 1.710129e-05 3.350403 1.128416e-06 -0.0005601859 -8.746399e-06 6.629607e-06 -1.136343e-05 2.842769 3.975119e-06 -4.827385e-06 -4.0199e-06 7.631443e-05 1.026279e-07 2.639707 -1.350941e-06 1.324939e-06 -1.980534e-06 -2.853409e-06 0 0 0 1.828819e-14 7.951387e-15 2.782985e-14 4.515316e-14 1.525985e-14 -4.9857e-16 1.590277e-14 1.908333e-14 9.541664e-15 -11.28994 -7.777049e-06 2.740389e-06 -5.150026 -12.81355 2.085576 0.0001816227 -38.2003 0.0004233893 -5.839186 3.51459 58.95509 -4.269416e-06 -39.90086 1.544622e-05 -3.871968 -5.411403 30.84627 3.792858e-06 -2.686782e-06 15.26166 -0.7211332 -0.5084112 -16.7015 1.421085e-14 7.105427e-15 7.370709 -2.703471e-14 3.180555e-15 3.180555e-14 -6.457177e-16 -3.481002e-15 -2.957105e-16 -3.021527e-14 -1.709548e-14 -6.361109e-15 0 0 0 -3.180555e-15 -6.559894e-15 -1.272222e-14 11.31566 8.202893e-06 2.816532e-06 -2.712619 10.5011 -0.1082752 0.0004731752 -38.20051 0.003459938 0.4959238 -0.5853419 9.248426 -7.181859e-06 -39.90093 7.907316e-06 9.496384 2.879788 19.33863 3.437802e-06 -7.248228e-06 15.26165 -0.677114 0.488183 -20.50239 -2.975398e-14 9.048318e-15 7.539996 -1.460446e-14 9.881772e-15 1.490885e-16 0 0 0 -1.113194e-14 1.2921e-15 6.361109e-15 0 0 0 -8.355168e-15 8.727889e-16 -1.272222e-14
